<svg width="360" height="333" viewBox="0 0 360 333" fill="none" xmlns="http://www.w3.org/2000/svg">
<path d="M275.784 299.026C279.536 298.771 287.707 305.302 291.699 305.302C295.763 305.302 300.188 302.453 301.878 302.507C303.868 302.573 303.536 304.721 303.254 308.528C303.157 308.53 303.059 308.531 302.959 308.532V311.761L303.087 311.76C303.08 312.082 303.076 312.411 303.075 312.748C303.075 317.69 300.385 321.078 297.776 324.41V305.905H294.876C294.097 307.886 292.581 308.532 289.941 308.532V311.761C291.413 311.761 292.712 311.589 293.794 311.073V329.875C292.359 331.656 290.652 333 287.805 333C286.278 333 285.44 332.453 284.866 331.709C284.89 331.481 284.902 331.248 284.902 331.009V310.986C284.902 307.714 282.651 305.561 279.232 305.517C277.777 305.517 276.523 305.925 275.567 306.651C273.729 302.613 272.194 299.265 275.784 299.026ZM279.232 309.005C280.27 309.005 280.92 309.737 280.92 310.814V325.892C279.287 323.373 278.223 320.16 278.223 315.129C278.223 314.013 277.972 312.816 277.587 311.597V310.814C277.587 309.737 278.236 309.005 279.232 309.005ZM275.667 1.20784C277.488 6.72781 279.74 14.1252 284.211 23.4912C285.038 25.2258 284.336 31.1344 285.092 33.8282C282.878 34.5408 281.485 36.438 281.485 38.9886V59.0116C281.485 62.2842 283.779 64.4803 287.155 64.4803C290.575 64.4803 292.826 62.2842 292.826 59.0116V38.9886C292.826 37.7492 292.502 36.6705 291.915 35.8061C294.114 36.7929 296.165 40.2822 297.861 42.3792C300.644 45.8162 297.036 57.633 300.226 61.3093C300.818 61.9921 301.289 62.8716 301.674 63.8932V64.0497H301.733C303.565 69.0928 303.397 77.4518 305.193 82.9671C304.306 81.2411 302.498 80.1984 300.129 80.1686C296.753 80.1686 294.459 82.3647 294.459 85.6372V105.66C294.459 108.933 296.753 111.129 300.129 111.129C303.549 111.129 305.8 108.933 305.8 105.66V85.6372C305.8 85.1137 305.742 84.6185 305.631 84.156C306.107 85.2942 306.697 86.2645 307.447 86.9969C308.715 88.2331 310.175 87.3159 311.618 86.9222V105.66C311.618 108.933 313.912 111.129 317.289 111.129C320.708 111.129 322.959 108.933 322.959 105.66V94.5565C324.045 95.6061 324.958 96.6535 325.529 97.6486C327.007 100.229 324.063 102.261 326.407 104.017C330.324 106.943 331.45 118.723 335.421 121.277C337.048 122.32 335.789 117.91 339.923 120.83C342.268 122.487 342.088 126.612 342.831 129.675C342.275 129.783 341.644 129.831 340.93 129.831V133.061C342.171 133.061 343.285 132.938 344.256 132.59C344.422 132.807 344.598 133.033 344.782 133.267V157.347H348.765V138.207C350.846 140.759 353.05 143.45 354.724 145.628V152.309C354.724 155.389 356.758 157.515 359.81 157.755C360.495 164.221 359.107 170.671 359.107 173.572V173.58C356.448 174.07 354.724 176.098 354.724 178.935V198.958C354.724 199.382 354.763 199.788 354.839 200.173C352.228 207.995 348.617 215.076 344.566 221.883C343.209 224.158 341.608 225.189 339.974 226.636V220.502H337.074C336.294 222.483 334.779 223.129 332.139 223.129V226.358C333.611 226.358 334.909 226.186 335.991 225.67V231.855C333.088 237.666 333.704 243.581 327.516 248.177C321.612 252.562 319.996 259.959 319.585 267.835C318.737 269.284 317.289 269.777 314.98 269.777V271.204C313.213 270.949 311.269 270.566 309.821 270.774C309.247 268.334 307.195 266.799 304.314 266.763C300.938 266.763 298.644 268.959 298.644 272.232V272.863C296.632 274.314 294.723 276.356 292.682 278.261V267.151H289.782C289.003 269.132 287.488 269.777 284.847 269.777V273.007C286.319 273.007 287.617 272.835 288.7 272.318V281.46C288.221 281.767 287.725 282.046 287.214 282.298C284.568 283.591 282.447 279.235 279.851 276.402V272.232C279.851 268.959 277.601 266.806 274.181 266.763C270.805 266.763 268.51 268.959 268.51 272.232V274.259C266.569 274.094 264.58 273.819 262.549 273.529V267.151H259.648C258.869 269.132 257.354 269.777 254.714 269.777V272.547C253.07 272.406 251.404 272.325 249.718 272.347V272.232C249.718 268.959 247.467 266.806 244.048 266.763C243.03 266.763 242.111 266.963 241.323 267.332C239.786 265.075 238.194 262.997 235.891 263.319C232.254 263.829 232.529 256.853 232.658 250.902C235.171 250.325 236.744 248.342 236.744 245.606V225.583C236.744 222.311 234.493 220.158 231.073 220.115C227.697 220.115 225.403 222.311 225.403 225.583V242.647C223.853 239.18 223.63 232.014 219.441 231.7V224.835C220.539 220.475 221.926 215.641 220.314 215.626C219.746 215.622 216.176 219.228 212.346 223.11C212.1 223.123 211.853 223.129 211.606 223.129V223.858C209.875 225.613 208.126 227.381 206.611 228.858V225.583C206.611 222.311 204.36 220.158 200.94 220.115C199.211 220.115 197.766 220.69 196.767 221.692C195.942 220.338 195.015 219.127 193.94 218.228C191.13 215.871 189.712 212.226 186.768 210.199C181.955 206.885 178.144 208.943 173.032 206.411C171.591 205.698 170.148 204.828 168.703 204.117C170.925 203.404 172.293 201.508 172.293 198.958V178.935C172.293 175.662 170.042 173.509 166.622 173.466C163.246 173.466 160.951 175.662 160.951 178.935V198.958C160.951 200.563 161.504 201.909 162.464 202.864C159.917 203.071 157.757 203.504 154.99 203.919V173.853H152.09C151.31 175.834 149.795 176.48 147.155 176.48V179.71C148.626 179.71 149.925 179.538 151.007 179.021V203.996H154.473C152.734 204.25 150.986 204.446 149.233 204.586C138.26 205.469 130.68 212.269 119.766 212.093C115.194 212.019 111.003 216.721 106.848 221.269C106.405 221.609 106.024 222.024 105.722 222.493C103.468 224.925 101.215 227.181 98.9079 228.47V220.502H96.0077C95.2285 222.483 93.7135 223.129 91.073 223.129V226.358C92.5447 226.358 93.8433 226.186 94.9255 225.67V229.585C94.6954 229.58 94.4658 229.561 94.238 229.529C91.35 229.123 88.6403 229.164 86.0777 229.419V225.583C86.0777 222.311 83.8264 220.158 80.4068 220.115C77.0304 220.115 74.7362 222.311 74.7362 225.583V231.33C73.1364 231.579 71.5889 231.74 70.0807 231.721C69.641 231.715 69.2056 231.798 68.7745 231.955V220.502H65.8743C65.0952 222.483 63.5801 223.129 60.9396 223.129V226.358C62.4114 226.358 63.71 226.186 64.7922 225.67V235.233C61.756 238.836 58.8702 244.058 55.9444 245.099V225.583C55.9444 222.311 53.6931 220.158 50.2734 220.115C46.8971 220.115 44.6029 222.311 44.6029 225.583V243.497C42.6175 243.427 40.5996 243.384 38.6412 243.165V220.502H35.741C35.1285 222.059 34.0615 222.791 32.3502 223.033C32.5439 221.764 32.7283 220.439 32.6806 219.047C32.5778 216.025 30.7237 212.519 29.5423 209.71C28.3289 206.826 25.5041 204.432 24.1863 200.995C23.1283 198.238 23.6676 194.503 22.0783 191.646C21.9324 191.384 21.7816 191.125 21.6259 190.868V178.935C21.6259 175.662 19.375 173.509 15.9554 173.466C14.4248 173.466 13.1161 173.917 12.1433 174.716C11.9907 174.206 11.7865 173.712 11.4799 173.243C7.91017 167.784 2.00911 165.342 0.137315 160.729C-1.43327 156.861 10.9763 163.676 11.5152 160.819C11.9012 158.776 8.21029 156.249 6.11197 152.296C5.41649 150.986 4.82202 149.571 4.32314 148.162V127.205H1.86842C1.88394 124.597 2.10073 122.247 2.77636 120.745C4.48835 116.941 7.19522 119.261 10.3919 116.68C12.5465 114.942 14.6658 112.991 16.9719 111.06C19.0908 110.766 20.6368 109.541 21.2865 107.719C22.9891 106.526 24.8277 105.399 26.8647 104.406C27.905 103.899 29.1643 103.65 30.4737 103.446V110.698H34.4561V102.735C34.8313 102.634 35.1956 102.518 35.5441 102.379C37.1597 101.733 38.7862 101.069 40.4181 100.39V105.66C40.4181 108.933 42.7123 111.129 46.0883 111.129C49.508 111.129 51.7593 108.933 51.7593 105.66V95.451C54.7273 94.1011 57.6769 92.7112 60.6071 91.2817V110.698H64.5894V89.3053C65.2549 88.9694 65.9165 88.6327 66.5745 88.2951C68.4632 87.3231 69.804 85.3896 71.0262 83.251C70.7174 83.9539 70.5515 84.7567 70.5515 85.6372V105.66C70.5515 108.933 72.8457 111.129 76.2217 111.129C79.6413 111.129 81.8926 108.933 81.8926 105.66V85.6372C81.8926 82.3647 79.6413 80.2116 76.2217 80.1686C74.1435 80.1686 72.4752 81.0011 71.4998 82.4045C73.1101 79.4753 74.6071 76.3534 77.0286 74.8711C78.9823 73.674 73.4636 67.9176 75.396 66.6616C77.6876 65.1761 76.7223 62.3072 77.7666 60.2263V64.0497H81.749V59.9385C84.3902 62.1095 87.7345 66.3764 89.26 65.2198C89.6023 64.9593 89.651 64.2122 89.5493 63.2136C90.5243 64.0224 91.8399 64.4803 93.3812 64.4803C96.8009 64.4803 99.0518 62.2842 99.0518 59.0116V42.0233C100.653 40.7523 102.329 39.5175 104.047 38.3025V39.7637C105.519 39.7637 106.817 39.5914 107.9 39.0751V64.0497H111.882V33.9075H110.478C113.981 31.5575 117.489 29.2139 120.745 26.7577C123.133 24.9542 131.339 38.4256 133.763 36.7017C134.639 36.0777 135.63 36.0067 136.68 36.2302C135.989 36.4444 135.163 36.5342 134.18 36.5342V39.7637C135.652 39.7637 136.951 39.5914 138.033 39.0751V64.0497H142.015V38.5368C144.034 39.4605 145.958 39.9772 147.451 38.5002C150.448 35.5316 141.252 34.2864 144.057 30.3116C146.783 26.4613 149.171 21.5029 152.718 16.9894C153.616 16.4415 154.296 15.646 154.702 14.6606C155.478 13.8233 156.298 13.0289 157.161 12.2808C159.062 10.6348 161.458 10.6732 163.982 11.0037V17.401H167.964V11.5603C169.781 11.7454 171.564 11.7146 173.182 10.9664C174.799 10.2218 175.403 7.69416 173.123 5.83754C171.783 4.74847 169.338 3.91956 167.964 3.13156V1.30509C169.68 1.05175 173.23 2.32023 176.955 3.41468V17.401H180.938V4.44239C182.418 4.74847 183.829 4.92574 185.06 4.85864C185.669 4.82491 186.29 4.90026 186.9 5.03985V12.363C186.9 15.6356 189.194 17.8316 192.57 17.8316C195.99 17.8316 198.241 15.6356 198.241 12.363V9.28129C199.31 9.7406 200.346 10.0987 201.285 10.126C203.227 10.1791 204.02 7.36977 205.942 7.4602C206.325 7.47823 206.707 7.5073 207.089 7.54739V17.401H211.071V8.37523C212.567 8.79435 214.051 9.23715 216.133 9.43415C216.475 9.46573 216.774 9.53391 217.033 9.63151V12.363C217.033 13.3225 217.23 14.1894 217.594 14.9358C217.093 15.9592 216.411 16.964 215.662 17.7871C214.314 19.2716 206.611 21.8736 208.875 24.7787C211.182 27.7316 200.947 35.0414 204.502 37.2285C205.76 38.0025 207.006 38.8375 208.244 39.7177V59.0116C208.244 62.2842 210.538 64.4803 213.914 64.4803C217.334 64.4803 219.585 62.2842 219.585 59.0116V48.769C222.49 51.2116 225.421 53.6686 228.433 55.9536V64.0497H232.415V58.8222C235.305 60.7828 238.287 62.5221 241.407 63.8875V64.0497H241.781C243.565 64.8101 245.394 65.4473 247.276 65.9329C250.217 66.6921 252.562 65.8679 254.447 63.9797C255.201 64.3048 256.068 64.4803 257.022 64.4803C260.441 64.4803 262.692 62.2842 262.692 59.0116V38.9886C262.692 38.0922 262.523 37.2802 262.207 36.5722C262.58 32.9375 262.861 29.5569 263.158 26.8481C263.43 24.3614 264.381 20.3385 265.636 16.0557C266.637 17.1789 268.156 17.832 269.996 17.832C273.415 17.832 275.667 15.6359 275.667 12.3633V1.20784ZM274.181 270.251C275.22 270.251 275.869 270.983 275.869 272.06V274.159C275.75 274.163 275.629 274.172 275.507 274.189C274.531 274.323 273.541 274.392 272.536 274.411V272.06C272.536 270.983 273.185 270.251 274.181 270.251ZM258.566 272.974C258.082 272.911 257.598 272.851 257.113 272.794C257.632 272.686 258.118 272.532 258.566 272.318V272.974ZM244.048 270.251C245.086 270.251 245.736 270.983 245.736 272.06V272.199C244.904 271.847 244.167 271.172 243.475 270.343C243.659 270.28 243.853 270.249 244.048 270.251ZM304.314 270.251C305.332 270.251 305.975 270.954 306.001 271.994C304.979 271.959 303.79 271.773 302.696 271.691C302.829 270.819 303.437 270.251 304.314 270.251ZM261.207 220.115C257.83 220.115 255.536 222.311 255.536 225.583V245.606C255.536 248.879 257.83 251.075 261.207 251.075C264.626 251.075 266.877 248.879 266.877 245.606V225.583C266.877 222.311 264.626 220.158 261.207 220.115ZM291.34 220.115C287.964 220.115 285.67 222.311 285.67 225.583V245.606C285.67 248.879 287.964 251.075 291.34 251.075C294.76 251.075 297.011 248.879 297.011 245.606V225.583C297.011 222.311 294.76 220.158 291.34 220.115ZM321.473 220.115C318.097 220.115 315.803 222.311 315.803 225.583V245.606C315.803 248.879 318.097 251.075 321.473 251.075C324.893 251.075 327.144 248.879 327.144 245.606V225.583C327.144 222.311 324.893 220.158 321.473 220.115ZM246.674 220.502C245.895 222.483 244.38 223.129 241.74 223.129V226.358C243.211 226.358 244.51 226.186 245.592 225.67V250.644H249.575V220.502H246.674ZM276.808 220.502C276.028 222.483 274.513 223.129 271.873 223.129V226.358C273.344 226.358 274.643 226.186 275.725 225.67V250.644H279.708V220.502H276.808ZM306.941 220.502C306.162 222.483 304.646 223.129 302.006 223.129V226.358C303.478 226.358 304.777 226.186 305.859 225.67V250.644H309.841V220.502H306.941ZM261.207 223.602C262.246 223.602 262.895 224.334 262.895 225.411V245.779C262.895 246.855 262.246 247.587 261.207 247.587C260.211 247.587 259.562 246.855 259.562 245.779V225.411C259.562 224.334 260.211 223.602 261.207 223.602ZM291.34 223.602C292.379 223.602 293.028 224.334 293.028 225.411V245.779C293.028 246.855 292.379 247.587 291.34 247.587C290.344 247.587 289.695 246.855 289.695 245.779V225.411C289.695 224.334 290.344 223.602 291.34 223.602ZM321.473 223.602C322.512 223.602 323.162 224.334 323.162 225.411V245.779C323.162 246.855 322.512 247.587 321.473 247.587C320.478 247.587 319.829 246.855 319.829 245.779V225.411C319.829 224.334 320.478 223.602 321.473 223.602ZM231.073 223.602C232.112 223.602 232.762 224.334 232.762 225.411V245.779C232.762 246.037 232.724 246.275 232.653 246.488C232.503 243.523 231.879 241.83 229.815 243.436C229.683 243.539 229.554 243.634 229.429 243.721V225.411C229.429 224.334 230.078 223.602 231.073 223.602ZM50.2734 223.602C51.3123 223.602 51.9616 224.334 51.962 225.411V244.369C50.9 244.069 49.7821 243.88 48.6285 243.753V225.411C48.6289 224.334 49.2778 223.602 50.2734 223.602ZM34.6588 242.379C32.2095 241.621 29.9824 240.289 28.199 237.887C25.2624 233.929 34.9233 234.54 32.5374 229.459C32.0642 228.452 31.9336 227.406 31.9653 226.316C32.9667 226.239 33.8703 226.046 34.6588 225.67V242.379ZM200.94 223.602C201.979 223.602 202.628 224.334 202.628 225.411V232.381C202.375 232.533 202.211 232.578 202.151 232.492C201.205 231.127 200.31 228.984 199.295 226.708V225.411C199.295 224.334 199.945 223.602 200.94 223.602ZM80.4068 223.602C81.4457 223.602 82.0953 224.334 82.0953 225.411V229.975C80.9565 230.171 79.8462 230.386 78.7619 230.597V225.411C78.7622 224.334 79.4112 223.602 80.4068 223.602ZM46.0883 173.466C42.7123 173.466 40.4181 175.662 40.4181 178.935V198.958C40.4181 202.23 42.7123 204.426 46.0883 204.426C49.508 204.426 51.7593 202.23 51.7593 198.958V178.935C51.7593 175.662 49.508 173.509 46.0883 173.466ZM76.2217 173.466C72.8457 173.466 70.5515 175.662 70.5515 178.935V198.958C70.5515 202.23 72.8457 204.426 76.2217 204.426C79.6413 204.426 81.8926 202.23 81.8926 198.958V178.935C81.8926 175.662 79.6413 173.509 76.2217 173.466ZM106.355 173.466C102.979 173.466 100.685 175.662 100.685 178.935V198.958C100.685 202.23 102.979 204.426 106.355 204.426C109.775 204.426 112.026 202.23 112.026 198.958V178.935C112.026 175.662 109.775 173.509 106.355 173.466ZM123.514 173.466C120.138 173.466 117.844 175.662 117.844 178.935V198.958C117.844 202.23 120.138 204.426 123.514 204.426C126.934 204.426 129.185 202.23 129.185 198.958V178.935C129.185 175.662 126.934 173.509 123.514 173.466ZM196.755 173.466C193.379 173.466 191.084 175.662 191.084 178.935V198.958C191.084 202.23 193.379 204.426 196.755 204.426C200.175 204.426 202.426 202.23 202.426 198.958V178.935C202.426 175.662 200.175 173.509 196.755 173.466ZM226.888 173.466C223.512 173.466 221.218 175.662 221.218 178.935V198.958C221.218 202.23 223.512 204.426 226.888 204.426C230.308 204.426 232.559 202.23 232.559 198.958V178.935C232.559 175.662 230.308 173.509 226.888 173.466ZM257.022 173.466C253.645 173.466 251.351 175.662 251.351 178.935V198.958C251.351 202.23 253.645 204.426 257.022 204.426C260.441 204.426 262.692 202.23 262.692 198.958V178.935C262.692 175.662 260.441 173.509 257.022 173.466ZM287.155 173.466C283.779 173.466 281.485 175.662 281.485 178.935V198.958C281.485 202.23 283.779 204.426 287.155 204.426C290.575 204.426 292.826 202.23 292.826 198.958V178.935C292.826 175.662 290.575 173.509 287.155 173.466ZM330.263 173.466C326.886 173.466 324.592 175.662 324.592 178.935V198.958C324.592 202.23 326.886 204.426 330.263 204.426C333.683 204.426 335.934 202.23 335.934 198.958V178.935C335.934 175.662 333.683 173.509 330.263 173.466ZM31.5559 173.853C30.7767 175.834 29.2621 176.48 26.6216 176.48V179.71C28.093 179.71 29.3916 179.537 30.4737 179.021V203.996H34.4561V173.853H31.5559ZM61.6892 173.853C60.9101 175.834 59.3954 176.48 56.7549 176.48V179.71C58.2267 179.71 59.5249 179.537 60.6071 179.021V203.996H64.5894V173.853H61.6892ZM91.8229 173.853C91.0438 175.834 89.5287 176.48 86.8882 176.48V179.71C88.36 179.71 89.6586 179.537 90.7408 179.021V203.996H94.7231V173.853H91.8229ZM139.115 173.853C138.336 175.834 136.821 176.48 134.18 176.48V179.71C135.652 179.71 136.951 179.537 138.033 179.021V203.996H142.015V173.853H139.115ZM182.223 173.853C181.443 175.834 179.928 176.48 177.288 176.48V179.71C178.76 179.71 180.058 179.537 181.14 179.021V203.996H185.123V173.853H182.223ZM212.356 173.853C211.577 175.834 210.062 176.48 207.421 176.48V179.71C208.893 179.71 210.192 179.537 211.274 179.021V203.996H215.256V173.853H212.356ZM242.489 173.853C241.71 175.834 240.195 176.48 237.555 176.48V179.71C239.026 179.71 240.325 179.537 241.407 179.021V203.996H245.389V173.853H242.489ZM272.623 173.853C271.843 175.834 270.328 176.48 267.688 176.48V179.71C269.16 179.71 270.458 179.538 271.54 179.021V203.996H275.523V173.853H272.623ZM302.756 173.853C301.977 175.834 300.462 176.48 297.821 176.48V179.71C299.293 179.71 300.592 179.538 301.674 179.021V203.996H305.656V173.853H302.756ZM315.73 173.853C314.951 175.834 313.436 176.48 310.796 176.48V179.71C312.267 179.71 313.566 179.537 314.648 179.021V203.996H318.63V173.853H315.73ZM345.864 173.853C345.085 175.834 343.57 176.48 340.93 176.48V179.71C342.401 179.71 343.7 179.538 344.782 179.021V203.996H348.765V173.853H345.864ZM46.0883 176.954C47.1272 176.954 47.7769 177.686 47.7769 178.762V199.13C47.7769 200.206 47.1272 200.939 46.0883 200.939C45.0931 200.938 44.4438 200.206 44.4438 199.13V178.762C44.4438 177.686 45.0931 176.954 46.0883 176.954ZM76.2217 176.954C77.2606 176.954 77.9102 177.686 77.9102 178.762V199.13C77.9102 200.206 77.2606 200.939 76.2217 200.939C75.2264 200.939 74.5771 200.206 74.5771 199.13V178.762C74.5771 177.686 75.2264 176.954 76.2217 176.954ZM106.355 176.954C107.394 176.954 108.043 177.686 108.043 178.762V199.13C108.043 200.206 107.394 200.939 106.355 200.939C105.36 200.939 104.71 200.206 104.71 199.13V178.762C104.71 177.686 105.36 176.954 106.355 176.954ZM123.514 176.954C124.553 176.954 125.202 177.686 125.203 178.762V199.13C125.203 200.206 124.553 200.939 123.514 200.939C122.519 200.938 121.87 200.206 121.869 199.13V178.762C121.87 177.686 122.519 176.954 123.514 176.954ZM166.622 176.954C167.661 176.954 168.31 177.686 168.31 178.762V199.13C168.31 200.206 167.661 200.938 166.622 200.939C165.626 200.939 164.977 200.206 164.977 199.13V178.762C164.977 177.686 165.626 176.954 166.622 176.954ZM196.755 176.954C197.794 176.954 198.444 177.686 198.444 178.762V199.13C198.444 200.206 197.794 200.939 196.755 200.939C195.759 200.938 195.11 200.206 195.11 199.13V178.762C195.11 177.686 195.759 176.954 196.755 176.954ZM226.888 176.954C227.927 176.954 228.577 177.686 228.577 178.762V199.13C228.577 200.206 227.927 200.939 226.888 200.939C225.893 200.939 225.244 200.206 225.244 199.13V178.762C225.244 177.686 225.893 176.954 226.888 176.954ZM257.022 176.954C258.061 176.954 258.71 177.686 258.71 178.762V199.13C258.71 200.206 258.061 200.939 257.022 200.939C256.026 200.939 255.377 200.206 255.377 199.13V178.762C255.377 177.686 256.026 176.954 257.022 176.954ZM287.155 176.954C288.194 176.954 288.843 177.686 288.843 178.762V199.13C288.843 200.206 288.194 200.939 287.155 200.939C286.16 200.939 285.51 200.206 285.51 199.13V178.762C285.51 177.686 286.16 176.954 287.155 176.954ZM330.263 176.954C331.302 176.954 331.951 177.686 331.951 178.762V199.13C331.951 200.206 331.302 200.939 330.263 200.939C329.268 200.939 328.618 200.206 328.618 199.13V178.762C328.618 177.686 329.268 176.954 330.263 176.954ZM15.9554 176.954C16.9942 176.954 17.6436 177.686 17.6436 178.762V185.334C16.464 183.818 15.2931 182.311 14.3105 180.815V178.762C14.3105 177.686 14.9598 176.954 15.9554 176.954ZM359.013 177.712C358.951 179.006 358.865 180.278 358.749 181.529V178.762C358.749 178.356 358.843 177.999 359.013 177.712ZM15.9554 126.817C12.579 126.817 10.2844 129.013 10.2844 132.286V152.309C10.2844 155.582 12.579 157.778 15.9554 157.778C19.375 157.778 21.6259 155.582 21.6259 152.309V132.286C21.6259 129.013 19.375 126.86 15.9554 126.817ZM46.0883 126.817C42.7123 126.817 40.4181 129.013 40.4181 132.286V152.309C40.4181 155.582 42.7123 157.778 46.0883 157.778C49.508 157.778 51.7593 155.582 51.7593 152.309V132.286C51.7593 129.013 49.508 126.86 46.0883 126.817ZM76.2217 126.817C72.8457 126.817 70.5515 129.013 70.5515 132.286V152.309C70.5515 155.582 72.8457 157.778 76.2217 157.778C79.6413 157.778 81.8926 155.582 81.8926 152.309V132.286C81.8926 129.013 79.6413 126.86 76.2217 126.817ZM93.3812 126.817C90.0049 126.817 87.7103 129.013 87.7103 132.286V152.309C87.7103 155.582 90.0049 157.778 93.3812 157.778C96.8009 157.778 99.0518 155.582 99.0518 152.309V132.286C99.0518 129.013 96.8009 126.86 93.3812 126.817ZM136.489 126.817C133.112 126.817 130.818 129.013 130.818 132.286V152.309C130.818 155.582 133.112 157.778 136.489 157.778C139.908 157.778 142.159 155.582 142.159 152.309V132.286C142.159 129.013 139.908 126.86 136.489 126.817ZM166.622 126.817C163.246 126.817 160.951 129.013 160.951 132.286V152.309C160.951 155.582 163.246 157.778 166.622 157.778C170.042 157.778 172.293 155.582 172.293 152.309V132.286C172.293 129.013 170.042 126.86 166.622 126.817ZM196.755 126.817C193.379 126.817 191.084 129.013 191.084 132.286V152.309C191.084 155.582 193.379 157.778 196.755 157.778C200.175 157.778 202.426 155.582 202.426 152.309V132.286C202.426 129.013 200.175 126.86 196.755 126.817ZM226.888 126.817C223.512 126.817 221.218 129.013 221.218 132.286V152.309C221.218 155.582 223.512 157.778 226.888 157.778C230.308 157.778 232.559 155.582 232.559 152.309V132.286C232.559 129.013 230.308 126.86 226.888 126.817ZM257.022 126.817C253.645 126.817 251.351 129.013 251.351 132.286V152.309C251.351 155.582 253.645 157.778 257.022 157.778C260.441 157.778 262.692 155.582 262.692 152.309V132.286C262.692 129.013 260.441 126.86 257.022 126.817ZM300.129 126.817C296.753 126.817 294.459 129.013 294.459 132.286V152.309C294.459 155.582 296.753 157.778 300.129 157.778C303.549 157.778 305.8 155.582 305.8 152.309V132.286C305.8 129.013 303.549 126.86 300.129 126.817ZM330.263 126.817C326.886 126.817 324.592 129.013 324.592 132.286V152.309C324.592 155.582 326.886 157.778 330.263 157.778C333.683 157.778 335.934 155.582 335.934 152.309V132.286C335.934 129.013 333.683 126.86 330.263 126.817ZM31.5559 127.205C30.7767 129.186 29.2621 129.831 26.6216 129.831V133.061C28.093 133.061 29.3916 132.889 30.4737 132.372V157.347H34.4561V127.205H31.5559ZM61.6892 127.205C60.9101 129.186 59.3954 129.831 56.7549 129.831V133.061C58.2267 133.061 59.5249 132.889 60.6071 132.372V157.347H64.5894V127.205H61.6892ZM108.982 127.205C108.203 129.186 106.688 129.831 104.047 129.831V133.061C105.519 133.061 106.817 132.889 107.9 132.372V157.347H111.882V127.205H108.982ZM121.956 127.205C121.177 129.186 119.662 129.831 117.021 129.831V133.061C118.493 133.061 119.792 132.889 120.874 132.372V157.347H124.856V127.205H121.956ZM152.09 127.205C151.31 129.186 149.795 129.831 147.155 129.831V133.061C148.626 133.061 149.925 132.889 151.007 132.372V157.347H154.99V127.205H152.09ZM182.223 127.205C181.443 129.186 179.928 129.831 177.288 129.831V133.061C178.76 133.061 180.058 132.889 181.14 132.372V157.347H185.123V127.205H182.223ZM212.356 127.205C211.577 129.186 210.062 129.831 207.421 129.831V133.061C208.893 133.061 210.192 132.889 211.274 132.372V157.347H215.256V127.205H212.356ZM242.489 127.205C241.71 129.186 240.195 129.831 237.555 129.831V133.061C239.026 133.061 240.325 132.889 241.407 132.372V157.347H245.389V127.205H242.489ZM272.623 127.205C271.843 129.186 270.328 129.831 267.688 129.831V133.061C269.16 133.061 270.458 132.889 271.54 132.372V157.347H275.523V127.205H272.623ZM285.597 127.205C284.818 129.186 283.302 129.831 280.662 129.831V133.061C282.134 133.061 283.432 132.889 284.514 132.372V157.347H288.497V127.205H285.597ZM315.73 127.205C314.951 129.186 313.436 129.831 310.796 129.831V133.061C312.267 133.061 313.566 132.889 314.648 132.372V157.347H318.63V127.205H315.73ZM15.9554 130.305C16.9942 130.305 17.6436 131.037 17.6436 132.114V152.482C17.6436 153.558 16.9942 154.29 15.9554 154.29C14.9598 154.29 14.3105 153.558 14.3105 152.482V132.114C14.3105 131.037 14.9598 130.305 15.9554 130.305ZM46.0883 130.305C47.1272 130.305 47.7769 131.037 47.7769 132.114V152.482C47.7769 153.558 47.1272 154.29 46.0883 154.29C45.0931 154.29 44.4438 153.558 44.4438 152.482V132.114C44.4438 131.037 45.0931 130.305 46.0883 130.305ZM76.2217 130.305C77.2606 130.305 77.9102 131.037 77.9102 132.114V152.482C77.9102 153.558 77.2606 154.29 76.2217 154.29C75.2264 154.29 74.5771 153.558 74.5771 152.482V132.114C74.5771 131.037 75.2264 130.305 76.2217 130.305ZM93.3812 130.305C94.4198 130.305 95.0691 131.037 95.0694 132.114V152.482C95.0691 153.558 94.4198 154.29 93.3812 154.29C92.3856 154.29 91.736 153.558 91.736 152.482V132.114C91.736 131.037 92.3856 130.305 93.3812 130.305ZM136.489 130.305C137.528 130.305 138.177 131.037 138.177 132.114V152.482C138.177 153.558 137.528 154.29 136.489 154.29C135.493 154.29 134.843 153.558 134.843 152.482V132.114C134.843 131.037 135.493 130.305 136.489 130.305ZM166.622 130.305C167.661 130.305 168.31 131.037 168.31 132.114V152.482C168.31 153.558 167.661 154.29 166.622 154.29C165.626 154.29 164.977 153.558 164.977 152.482V132.114C164.977 131.037 165.626 130.305 166.622 130.305ZM196.755 130.305C197.794 130.305 198.444 131.037 198.444 132.114V152.482C198.444 153.558 197.794 154.29 196.755 154.29C195.759 154.29 195.11 153.558 195.11 152.482V132.114C195.11 131.037 195.759 130.305 196.755 130.305ZM226.888 130.305C227.927 130.305 228.577 131.037 228.577 132.114V152.482C228.577 153.558 227.927 154.29 226.888 154.29C225.893 154.29 225.244 153.558 225.244 152.482V132.114C225.244 131.037 225.893 130.305 226.888 130.305ZM257.022 130.305C258.061 130.305 258.71 131.037 258.71 132.114V152.482C258.71 153.558 258.061 154.29 257.022 154.29C256.026 154.29 255.377 153.558 255.377 152.482V132.114C255.377 131.037 256.026 130.305 257.022 130.305ZM300.129 130.305C301.168 130.305 301.818 131.037 301.818 132.114V152.482C301.818 153.558 301.168 154.29 300.129 154.29C299.134 154.29 298.485 153.558 298.485 152.482V132.114C298.485 131.037 299.134 130.305 300.129 130.305ZM330.263 130.305C331.302 130.305 331.951 131.037 331.951 132.114V152.482C331.951 153.558 331.302 154.29 330.263 154.29C329.268 154.29 328.618 153.558 328.618 152.482V132.114C328.618 131.037 329.268 130.305 330.263 130.305ZM358.757 152.649C358.858 152.953 358.948 153.259 359.034 153.567C358.876 153.313 358.778 153.003 358.757 152.649ZM93.3812 80.1686C90.0049 80.1686 87.7103 82.3647 87.7103 85.6372V105.66C87.7103 108.933 90.0049 111.129 93.3812 111.129C96.8009 111.129 99.0518 108.933 99.0518 105.66V85.6372C99.0518 82.3647 96.8009 80.2116 93.3812 80.1686ZM136.489 80.1686C133.112 80.1686 130.818 82.3647 130.818 85.6372V105.66C130.818 108.933 133.112 111.129 136.489 111.129C139.908 111.129 142.159 108.933 142.159 105.66V85.6372C142.159 82.3647 139.908 80.2116 136.489 80.1686ZM166.622 80.1686C163.246 80.1686 160.951 82.3647 160.951 85.6372V105.66C160.951 108.933 163.246 111.129 166.622 111.129C170.042 111.129 172.293 108.933 172.293 105.66V85.6372C172.293 82.3647 170.042 80.2116 166.622 80.1686ZM196.755 80.1686C193.379 80.1686 191.084 82.3647 191.084 85.6372V105.66C191.084 108.933 193.379 111.129 196.755 111.129C200.175 111.129 202.426 108.933 202.426 105.66V85.6372C202.426 82.3647 200.175 80.2116 196.755 80.1686ZM226.888 80.1686C223.512 80.1686 221.218 82.3647 221.218 85.6372V105.66C221.218 108.933 223.512 111.129 226.888 111.129C230.308 111.129 232.559 108.933 232.559 105.66V85.6372C232.559 82.3647 230.308 80.2116 226.888 80.1686ZM257.022 80.1686C253.645 80.1686 251.351 82.3647 251.351 85.6372V105.66C251.351 108.933 253.645 111.129 257.022 111.129C260.441 111.129 262.692 108.933 262.692 105.66V85.6372C262.692 82.3647 260.441 80.2116 257.022 80.1686ZM108.982 80.5561C108.203 82.5369 106.688 83.1828 104.047 83.1828V86.4123C105.519 86.4123 106.817 86.2401 107.9 85.7237V110.698H111.882V80.5561H108.982ZM121.956 80.5561C121.177 82.5369 119.662 83.1828 117.021 83.1828V86.4123C118.493 86.4123 119.792 86.2404 120.874 85.7237V110.698H124.856V80.5561H121.956ZM152.09 80.5561C151.31 82.5369 149.795 83.1828 147.155 83.1828V86.4123C148.626 86.4123 149.925 86.2404 151.007 85.7237V110.698H154.99V80.5561H152.09ZM182.223 80.5561C181.443 82.5369 179.928 83.1828 177.288 83.1828V86.4123C178.76 86.4123 180.058 86.2401 181.14 85.7237V110.698H185.123V80.5561H182.223ZM212.356 80.5561C211.577 82.5369 210.062 83.1828 207.421 83.1828V86.4123C208.893 86.4123 210.192 86.2401 211.274 85.7237V110.698H215.256V80.5561H212.356ZM242.489 80.5561C241.71 82.5369 240.195 83.1828 237.555 83.1828V86.4123C239.026 86.4123 240.325 86.2401 241.407 85.7237V110.698H245.389V80.5561H242.489ZM272.623 80.5561C271.843 82.5369 270.328 83.1828 267.688 83.1828V86.4123C269.16 86.4123 270.458 86.2404 271.54 85.7237V110.698H275.523V80.5561H272.623ZM285.597 80.5561C284.818 82.5369 283.302 83.1828 280.662 83.1828V86.4123C282.134 86.4123 283.432 86.2401 284.514 85.7237V110.698H288.497V80.5561H285.597ZM47.7769 105.833C47.7769 106.909 47.1272 107.641 46.0883 107.641C45.0931 107.641 44.4438 106.909 44.4438 105.833V98.6874C45.5548 98.2097 46.6659 97.7258 47.7769 97.2359V105.833ZM76.2217 83.6565C77.2606 83.6565 77.9102 84.3885 77.9102 85.465V105.833C77.9102 106.909 77.2606 107.641 76.2217 107.641C75.2264 107.641 74.5771 106.909 74.5771 105.833V85.465C74.5771 84.3885 75.2264 83.6565 76.2217 83.6565ZM93.3812 83.6565C94.4198 83.6565 95.0691 84.3885 95.0694 85.465V105.833C95.0691 106.909 94.4198 107.641 93.3812 107.641C92.3856 107.641 91.736 106.909 91.736 105.833V85.465C91.736 84.3885 92.3856 83.6565 93.3812 83.6565ZM136.489 83.6565C137.528 83.6565 138.177 84.3885 138.177 85.465V105.833C138.177 106.909 137.528 107.641 136.489 107.641C135.493 107.641 134.843 106.909 134.843 105.833V85.465C134.843 84.3885 135.493 83.6565 136.489 83.6565ZM166.622 83.6565C167.661 83.6565 168.31 84.3885 168.31 85.465V105.833C168.31 106.909 167.661 107.641 166.622 107.641C165.626 107.641 164.977 106.909 164.977 105.833V85.465C164.977 84.3885 165.626 83.6565 166.622 83.6565ZM196.755 83.6565C197.794 83.6565 198.444 84.3885 198.444 85.465V105.833C198.444 106.909 197.794 107.641 196.755 107.641C195.759 107.641 195.11 106.909 195.11 105.833V85.465C195.11 84.3885 195.759 83.6565 196.755 83.6565ZM226.888 83.6565C227.927 83.6565 228.577 84.3885 228.577 85.465V105.833C228.577 106.909 227.927 107.641 226.888 107.641C225.893 107.641 225.244 106.909 225.244 105.833V85.465C225.244 84.3885 225.893 83.6565 226.888 83.6565ZM257.022 83.6565C258.061 83.6565 258.71 84.3885 258.71 85.465V105.833C258.71 106.909 258.061 107.641 257.022 107.641C256.026 107.641 255.377 106.909 255.377 105.833V85.465C255.377 84.3885 256.026 83.6565 257.022 83.6565ZM300.129 83.6565C301.168 83.6565 301.818 84.3885 301.818 85.465V105.833C301.818 106.909 301.168 107.641 300.129 107.641C299.134 107.641 298.485 106.909 298.485 105.833V85.465C298.485 84.3885 299.134 83.6565 300.129 83.6565ZM315.643 88.5632C316.653 89.3537 317.808 90.2314 318.977 91.1529V105.833C318.977 106.909 318.327 107.641 317.289 107.641C316.293 107.641 315.643 106.909 315.643 105.833V88.5632ZM123.514 33.5199C120.138 33.5199 117.844 35.716 117.844 38.9886V59.0116C117.844 62.2842 120.138 64.4803 123.514 64.4803C126.934 64.4803 129.185 62.2842 129.185 59.0116V38.9886C129.185 35.716 126.934 33.563 123.514 33.5199ZM153.648 33.5199C150.271 33.5199 147.977 35.716 147.977 38.9886V59.0116C147.977 62.2842 150.271 64.4803 153.648 64.4803C157.067 64.4803 159.318 62.2842 159.318 59.0116V38.9886C159.318 35.716 157.067 33.563 153.648 33.5199ZM183.781 33.5199C180.405 33.5199 178.111 35.716 178.111 38.9886V59.0116C178.111 62.2842 180.405 64.4803 183.781 64.4803C187.201 64.4803 189.451 62.2842 189.451 59.0116V38.9886C189.451 35.716 187.201 33.563 183.781 33.5199ZM169.248 33.9075C168.469 35.8882 166.954 36.5342 164.314 36.5342V39.7637C165.786 39.7637 167.084 39.5914 168.166 39.0751V64.0497H172.149V33.9075H169.248ZM199.382 33.9075C198.603 35.8882 197.088 36.5342 194.447 36.5342V39.7637C195.919 39.7637 197.217 39.5918 198.3 39.0751V64.0497H202.282V33.9075H199.382ZM272.623 33.9075C271.843 35.8882 270.328 36.5342 267.688 36.5342V39.7637C269.16 39.7637 270.458 39.5918 271.54 39.0751V64.0497H275.523V33.9075H272.623ZM91.736 54.0744C92.8117 54.5474 93.9876 55.1699 95.0694 55.6479V59.1842C95.0691 60.2604 94.4198 60.9924 93.3812 60.9928C92.3856 60.9928 91.736 60.2604 91.736 59.1842V54.0744ZM123.514 37.0078C124.553 37.0078 125.202 37.7398 125.203 38.8163V59.1842C125.203 60.2604 124.553 60.9928 123.514 60.9928C122.519 60.9924 121.87 60.2604 121.869 59.1842V38.8163C121.87 37.7398 122.519 37.0078 123.514 37.0078ZM153.648 37.0078C154.686 37.0078 155.336 37.7398 155.336 38.8163V59.1842C155.336 60.2604 154.686 60.9928 153.648 60.9928C152.652 60.9928 152.003 60.2604 152.003 59.1842V38.8163C152.003 37.7398 152.652 37.0078 153.648 37.0078ZM183.781 37.0078C184.82 37.0078 185.469 37.7398 185.469 38.8163V59.1842C185.469 60.2604 184.82 60.9928 183.781 60.9928C182.785 60.9928 182.136 60.2604 182.136 59.1842V38.8163C182.136 37.7398 182.785 37.0078 183.781 37.0078ZM212.269 42.7438C213.391 43.6299 214.502 44.5288 215.602 45.4405V59.1842C215.602 60.2604 214.953 60.9928 213.914 60.9928C212.919 60.9928 212.269 60.2604 212.269 59.1842V42.7438ZM258.71 59.1842C258.71 60.2604 258.061 60.9928 257.022 60.9928C256.893 60.9925 256.771 60.9804 256.655 60.9565C257.442 59.5402 258.121 57.896 258.71 56.0968V59.1842ZM287.155 37.0078C288.194 37.0078 288.843 37.7398 288.843 38.8163V59.1842C288.843 60.2604 288.194 60.9928 287.155 60.9928C286.16 60.9928 285.51 60.2604 285.51 59.1842V38.8163C285.51 37.7398 286.16 37.0078 287.155 37.0078ZM190.925 6.65533C191.488 6.9302 191.918 7.1254 192.152 7.1254C192.816 7.1254 193.525 7.2919 194.258 7.5456V12.5356C194.258 13.6121 193.609 14.3441 192.57 14.3441C191.575 14.3441 190.925 13.6121 190.925 12.5356V6.65533ZM271.684 12.5356C271.684 13.6121 271.035 14.3441 269.996 14.3441C269 14.3441 268.351 13.6121 268.351 12.5356V7.7627C269.482 4.66092 270.649 1.88676 271.684 0V12.5356Z" fill="#FFCD00"/>
</svg>
