<svg width="360" height="360" viewBox="0 0 360 360" fill="none" xmlns="http://www.w3.org/2000/svg">
<rect width="360" height="360" rx="32" fill="white"/>
<path d="M128.01 233.57C131.96 249.7 145.45 246.31 151 253.58C155.52 259.51 162.41 261.73 169.38 259.38C173.07 258.14 175.19 254.86 175.21 250.77L175.42 215.02C175.42 213.42 181.37 213.48 181.59 215.09C181.77 227.96 182.02 240.92 181.45 253.68C180.99 264.11 169.97 268.61 161.08 267.69C152.98 266.85 148.92 260.58 142.93 256.95C132.43 252.62 122.64 246.5 120.92 233.75C105.11 223.86 100.52 212.67 103.62 194.54C92.8101 175.1 98.3502 156.61 113.78 141.36C112.95 126.72 122.92 114.24 137.54 111.43C143.94 100.83 154.18 94.01 166.7 93C174.49 95.74 177.99 103.71 176.62 111.8C178.86 127.75 167.66 141.65 151.85 142.31C150.31 146.53 146.88 149.2 143.24 149.54C139.23 149.91 135.2 146.94 133.8 142.98C132.09 138.15 134.35 132.43 138.08 130.66C143.69 128 148.5 130.55 152.04 135.05C157.12 135.45 163.5 131.65 166.22 127.19C171.2 119.05 171.47 108.64 167.29 100.19C155.58 100.73 147.15 108.26 141.8 117.97C129.66 119.39 120.42 128.23 120.83 140.96C120.92 143.7 119.13 146.19 117.23 147.96C104.51 159.82 101.79 177.35 110.41 192.34C111.7 194.58 110.14 199.22 109.76 201.87C108.35 211.6 114.06 220.55 122.06 225.72C124.99 227.61 127.16 230.16 128 233.59L128.01 233.57ZM146.24 139.49C146.24 137.62 144.73 136.11 142.86 136.11C140.99 136.11 139.48 137.62 139.48 139.49C139.48 141.36 140.99 142.87 142.86 142.87C144.73 142.87 146.24 141.36 146.24 139.49Z" fill="#8DD789"/>
<path d="M231.88 235.18C233.14 230.88 234.66 227.76 238.52 225.48C246.72 220.64 252.75 211.7 250.77 201.93C250.3 199.63 248.3 195.37 249.39 193.37C253.13 186.52 256.2 179.64 255.25 171.81C253.88 160.57 247.62 151.65 239.16 144.49C240.93 132.3 233.54 121.48 221.72 118.88C218.19 118.11 216.39 116.21 214.62 113.04C211.48 107.42 205.8 103.21 199.8 100.8C196.62 99.52 190.89 100.96 190.7 104.79C190 118.44 190.24 131.14 190.51 144.89C190.54 146.19 189.2 148.44 188.1 148.82C186.78 149.28 184.01 147.96 183.49 146.56L183.55 104.68C184.96 97.32 190.76 92.24 198.33 93.56C208.46 95.33 216.88 101.77 221.84 111.17C236.36 114.29 246.36 126.75 246.91 141.48L255.09 151.65C264.1 164.88 264.31 181.67 256.38 195.65C262.8 210.82 253.76 224.53 240.21 233.25C237.35 245.11 228.33 251.97 217.43 256.63C213.53 259.61 209.35 264.29 204.59 266.25C196.21 269.72 187.06 266.82 184.69 257.8C184.41 256.73 185.41 253.98 186.39 253.65C191.85 251.83 188.98 260.05 197.72 260.29C205.34 260.49 207.58 254.07 212.81 250.94C219.66 246.83 229.1 244.69 231.87 235.19L231.88 235.18Z" fill="#8DD789"/>
<path d="M152.49 217.82C156.31 222.38 151.19 225.92 160.58 234.04C163.33 236.42 164.94 239.52 164.19 242.98C163.9 244.34 161.47 246.11 160.27 246.05C158.98 245.99 157.98 243.66 157.95 241.56L148.84 231.88C145.93 231.43 142.11 231.18 140.55 228.91C138.76 226.29 138.13 223.34 139.05 219.64L132.04 211.42C130.24 209.31 125.6 205.59 125.53 202.62L125.07 182.94C121.25 180.23 118.34 177.1 119.09 172.42C119.61 169.17 122.98 165.03 126.61 164.46C130.81 163.8 134.63 165.94 137.15 170.05L149.53 170.45C150.87 170.49 151.95 173.81 151.36 174.91C150.77 176.01 148.4 177.49 147.11 177.46L138.08 177.27L131.81 183.13L132.04 201.63C135.86 206.14 140.87 211.64 145.25 215.32C146.62 216.47 151.3 216.43 152.48 217.83L152.49 217.82Z" fill="#8DD789"/>
<path d="M225.28 181.35C217.62 173.31 213.66 179.36 210.75 176.35C209.95 175.52 209.62 172.74 210.25 171.76C212.61 168.1 218.75 173.44 224.87 166.71C226.57 164.84 228.33 162.48 228.33 160.36C228.33 157.6 226.86 155 225.01 152.88L216.78 143.45C211.27 144.05 207.42 140.55 207.15 135.25C206.92 130.66 211.65 126.13 216.74 127.46C221.39 128.67 225.42 133.72 222.19 139.26L234.4 153.53L235.36 164.39C240.63 167.61 242.82 173.72 239.43 178.83C236.55 183.16 229.66 185.94 225.3 181.36L225.28 181.35ZM234.79 173.54C234.79 171.61 233.22 170.04 231.29 170.04C229.36 170.04 227.79 171.61 227.79 173.54C227.79 175.47 229.36 177.04 231.29 177.04C233.22 177.04 234.79 175.47 234.79 173.54Z" fill="#8DD789"/>
<path d="M209.54 226.4C210.54 232.52 207.95 236.97 202.43 237.81C197.85 238.51 192.9 234.42 193.36 228.74C193.72 224.3 198.29 219.94 204.45 221.8L213.57 211.77C212.61 206.42 214.63 201.39 219.06 199.54C223.66 197.62 229.03 199.37 231.42 203.71C233.81 208.05 232.97 213.24 228.5 216.62C225.66 218.77 221.65 218.77 217.71 217.5L209.54 226.4ZM226.48 208.52C226.48 206.61 224.93 205.07 223.03 205.07C221.13 205.07 219.58 206.62 219.58 208.52C219.58 210.42 221.13 211.97 223.03 211.97C224.93 211.97 226.48 210.42 226.48 208.52Z" fill="#8DD789"/>
<path d="M164.045 204V157.455H195.409V165.568H173.886V176.659H193.795V184.773H173.886V195.886H195.5V204H164.045Z" fill="#8DD789"/>
</svg>
