<svg width="263" height="361" viewBox="0 0 263 361" fill="none" xmlns="http://www.w3.org/2000/svg">
<path d="M131.058 101.023L174.558 126.14L131.058 151.256L87.5583 126.14L131.058 101.023Z" fill="#3EB03E" stroke="#0F420F" stroke-width="1.11628" stroke-linejoin="round"/>
<path d="M87.5583 176.372L131.058 201.489V151.256L87.5583 126.14V176.372Z" fill="#228B22" stroke="#0F420F" stroke-width="1.11628" stroke-linejoin="round"/>
<path d="M174.558 176.372L131.058 201.489V151.256L174.558 126.14V176.372Z" fill="#145A14" stroke="#0F420F" stroke-width="1.11628" stroke-linejoin="round"/>
<path d="M174.558 126.14L218.058 151.256L174.558 176.372L131.058 151.256L174.558 126.14Z" fill="#3EB03E" stroke="#0F420F" stroke-width="1.11628" stroke-linejoin="round"/>
<path d="M131.058 201.488L174.558 226.605V176.372L131.058 151.256V201.488Z" fill="#228B22" stroke="#0F420F" stroke-width="1.11628" stroke-linejoin="round"/>
<path d="M218.058 201.488L174.558 226.605V176.372L218.058 151.256V201.488Z" fill="#145A14" stroke="#0F420F" stroke-width="1.11628" stroke-linejoin="round"/>
<path d="M218.058 151.256L261.558 176.372L218.058 201.488L174.558 176.372L218.058 151.256Z" fill="#3EB03E" stroke="#0F420F" stroke-width="1.11628" stroke-linejoin="round"/>
<path d="M174.558 226.605L218.058 251.721V201.488L174.558 176.372V226.605Z" fill="#228B22" stroke="#0F420F" stroke-width="1.11628" stroke-linejoin="round"/>
<path d="M261.558 226.605L218.058 251.721V201.488L261.558 176.372V226.605Z" fill="#145A14" stroke="#0F420F" stroke-width="1.11628" stroke-linejoin="round"/>
<path d="M87.5581 126.14L131.058 151.256L87.5581 176.372L44.0581 151.256L87.5581 126.14Z" fill="#3EB03E" stroke="#0F420F" stroke-width="1.11628" stroke-linejoin="round"/>
<path d="M44.0581 201.488L87.5581 226.605V176.372L44.0581 151.256V201.488Z" fill="#228B22" stroke="#0F420F" stroke-width="1.11628" stroke-linejoin="round"/>
<path d="M131.058 201.488L87.5583 226.605V176.372L131.058 151.256V201.488Z" fill="#145A14" stroke="#0F420F" stroke-width="1.11628" stroke-linejoin="round"/>
<path d="M174.558 176.372L218.058 201.488L174.558 226.605L131.058 201.488L174.558 176.372Z" fill="#3EB03E" stroke="#0F420F" stroke-width="1.11628" stroke-linejoin="round"/>
<path d="M131.058 251.721L174.558 276.837V226.605L131.058 201.488V251.721Z" fill="#228B22" stroke="#0F420F" stroke-width="1.11628" stroke-linejoin="round"/>
<path d="M218.058 251.721L174.558 276.837V226.605L218.058 201.488V251.721Z" fill="#145A14" stroke="#0F420F" stroke-width="1.11628" stroke-linejoin="round"/>
<path d="M44.0582 151.256L87.5582 176.372L44.0582 201.488L0.558167 176.372L44.0582 151.256Z" fill="#3EB03E" stroke="#0F420F" stroke-width="1.11628" stroke-linejoin="round"/>
<path d="M0.558167 226.605L44.0582 251.721V201.488L0.558167 176.372V226.605Z" fill="#228B22" stroke="#0F420F" stroke-width="1.11628" stroke-linejoin="round"/>
<path d="M87.5581 226.605L44.0581 251.721V201.488L87.5581 176.372V226.605Z" fill="#145A14" stroke="#0F420F" stroke-width="1.11628" stroke-linejoin="round"/>
<path d="M87.5581 176.372L131.058 201.488L87.5581 226.605L44.0581 201.488L87.5581 176.372Z" fill="#3EB03E" stroke="#0F420F" stroke-width="1.11628" stroke-linejoin="round"/>
<path d="M44.0581 251.721L87.5581 276.837V226.605L44.0581 201.488V251.721Z" fill="#228B22" stroke="#0F420F" stroke-width="1.11628" stroke-linejoin="round"/>
<path d="M131.058 251.721L87.5583 276.837V226.605L131.058 201.488V251.721Z" fill="#145A14" stroke="#0F420F" stroke-width="1.11628" stroke-linejoin="round"/>
<path d="M131.058 201.488L174.558 226.605L131.058 251.721L87.5583 226.605L131.058 201.488Z" fill="#3EB03E" stroke="#0F420F" stroke-width="1.11628" stroke-linejoin="round"/>
<path d="M87.5583 276.837L131.058 301.953V251.721L87.5583 226.604V276.837Z" fill="#228B22" stroke="#0F420F" stroke-width="1.11628" stroke-linejoin="round"/>
<path d="M174.558 276.837L131.058 301.953V251.721L174.558 226.604V276.837Z" fill="#145A14" stroke="#0F420F" stroke-width="1.11628" stroke-linejoin="round"/>
<path d="M131.058 50.791L174.558 75.9073L131.058 101.024L87.5583 75.9073L131.058 50.791Z" fill="#3EB03E" stroke="#0F420F" stroke-width="1.11628" stroke-linejoin="round"/>
<path d="M87.5583 126.14L131.058 151.256V101.024L87.5583 75.9072V126.14Z" fill="#228B22" stroke="#0F420F" stroke-width="1.11628" stroke-linejoin="round"/>
<path d="M174.558 126.14L131.058 151.256V101.024L174.558 75.9072V126.14Z" fill="#145A14" stroke="#0F420F" stroke-width="1.11628" stroke-linejoin="round"/>
<path d="M139.989 144.558H122.128C119.662 144.558 117.663 146.557 117.663 149.023V160.186C117.663 162.652 119.662 164.651 122.128 164.651H139.989C142.455 164.651 144.454 162.652 144.454 160.186V149.023C144.454 146.557 142.455 144.558 139.989 144.558Z" fill="#FFC517"/>
<path d="M124.361 144.558V135.628C124.361 133.852 125.067 132.148 126.323 130.892C127.579 129.636 129.282 128.93 131.059 128.93C132.835 128.93 134.539 129.636 135.795 130.892C137.051 132.148 137.756 133.852 137.756 135.628V144.558" stroke="#FFC517" stroke-width="4.46512"/>
<path d="M131.058 155.721C132.908 155.721 134.407 154.221 134.407 152.372C134.407 150.522 132.908 149.023 131.058 149.023C129.209 149.023 127.709 150.522 127.709 152.372C127.709 154.221 129.209 155.721 131.058 155.721Z" fill="#145A14"/>
<path d="M129.384 152.372H132.733L133.291 159.07H128.826L129.384 152.372Z" fill="#145A14"/>
<path d="M218.058 101.023L261.558 126.14L218.058 151.256L174.558 126.14L218.058 101.023Z" fill="#3EB03E" stroke="#0F420F" stroke-width="1.11628" stroke-linejoin="round"/>
<path d="M174.558 176.372L218.058 201.489V151.256L174.558 126.14V176.372Z" fill="#228B22" stroke="#0F420F" stroke-width="1.11628" stroke-linejoin="round"/>
<path d="M261.558 176.372L218.058 201.489V151.256L261.558 126.14V176.372Z" fill="#145A14" stroke="#0F420F" stroke-width="1.11628" stroke-linejoin="round"/>
<path d="M44.0582 101.023L87.5582 126.14L44.0582 151.256L0.558167 126.14L44.0582 101.023Z" fill="#3EB03E" stroke="#0F420F" stroke-width="1.11628" stroke-linejoin="round"/>
<path d="M0.558167 176.372L44.0582 201.489V151.256L0.558167 126.14V176.372Z" fill="#228B22" stroke="#0F420F" stroke-width="1.11628" stroke-linejoin="round"/>
<path d="M87.5581 176.372L44.0581 201.489V151.256L87.5581 126.14V176.372Z" fill="#145A14" stroke="#0F420F" stroke-width="1.11628" stroke-linejoin="round"/>
<path d="M131.058 151.256L174.558 176.372L131.058 201.488L87.5583 176.372L131.058 151.256Z" fill="#3EB03E" stroke="#0F420F" stroke-width="1.11628" stroke-linejoin="round"/>
<path d="M87.5583 226.605L131.058 251.721V201.488L87.5583 176.372V226.605Z" fill="#228B22" stroke="#0F420F" stroke-width="1.11628" stroke-linejoin="round"/>
<path d="M174.558 226.605L131.058 251.721V201.488L174.558 176.372V226.605Z" fill="#145A14" stroke="#0F420F" stroke-width="1.11628" stroke-linejoin="round"/>
<path d="M131.058 0.558105L174.558 25.6744L131.058 50.7907L87.5583 25.6744L131.058 0.558105Z" fill="#3EB03E" stroke="#0F420F" stroke-width="1.11628" stroke-linejoin="round"/>
<path d="M87.5583 75.9069L131.058 101.023V50.7906L87.5583 25.6743V75.9069Z" fill="#228B22" stroke="#0F420F" stroke-width="1.11628" stroke-linejoin="round"/>
<path d="M174.558 75.9069L131.058 101.023V50.7906L174.558 25.6743V75.9069Z" fill="#145A14" stroke="#0F420F" stroke-width="1.11628" stroke-linejoin="round"/>
<path d="M174.558 25.6743L218.058 50.7906L174.558 75.9069L131.058 50.7906L174.558 25.6743Z" fill="#3EB03E" stroke="#0F420F" stroke-width="1.11628" stroke-linejoin="round"/>
<path d="M131.058 101.024L174.558 126.14V75.9073L131.058 50.791V101.024Z" fill="#228B22" stroke="#0F420F" stroke-width="1.11628" stroke-linejoin="round"/>
<path d="M218.058 101.024L174.558 126.14V75.9073L218.058 50.791V101.024Z" fill="#145A14" stroke="#0F420F" stroke-width="1.11628" stroke-linejoin="round"/>
<path d="M218.058 50.791L261.558 75.9073L218.058 101.024L174.558 75.9073L218.058 50.791Z" fill="#3EB03E" stroke="#0F420F" stroke-width="1.11628" stroke-linejoin="round"/>
<path d="M174.558 126.14L218.058 151.256V101.024L174.558 75.9072V126.14Z" fill="#228B22" stroke="#0F420F" stroke-width="1.11628" stroke-linejoin="round"/>
<path d="M261.558 126.14L218.058 151.256V101.024L261.558 75.9072V126.14Z" fill="#145A14" stroke="#0F420F" stroke-width="1.11628" stroke-linejoin="round"/>
<path d="M87.5581 25.6743L131.058 50.7906L87.5581 75.9069L44.0581 50.7906L87.5581 25.6743Z" fill="#3EB03E" stroke="#0F420F" stroke-width="1.11628" stroke-linejoin="round"/>
<path d="M44.0581 101.024L87.5581 126.14V75.9073L44.0581 50.791V101.024Z" fill="#228B22" stroke="#0F420F" stroke-width="1.11628" stroke-linejoin="round"/>
<path d="M131.058 101.024L87.5583 126.14V75.9073L131.058 50.791V101.024Z" fill="#145A14" stroke="#0F420F" stroke-width="1.11628" stroke-linejoin="round"/>
<path d="M174.558 75.9072L218.058 101.024L174.558 126.14L131.058 101.024L174.558 75.9072Z" fill="#3EB03E" stroke="#0F420F" stroke-width="1.11628" stroke-linejoin="round"/>
<path d="M131.058 151.256L174.558 176.372V126.14L131.058 101.023V151.256Z" fill="#228B22" stroke="#0F420F" stroke-width="1.11628" stroke-linejoin="round"/>
<path d="M218.058 151.256L174.558 176.372V126.14L218.058 101.023V151.256Z" fill="#145A14" stroke="#0F420F" stroke-width="1.11628" stroke-linejoin="round"/>
<path d="M44.0582 50.791L87.5582 75.9073L44.0582 101.024L0.558167 75.9073L44.0582 50.791Z" fill="#3EB03E" stroke="#0F420F" stroke-width="1.11628" stroke-linejoin="round"/>
<path d="M0.558167 126.14L44.0582 151.256V101.024L0.558167 75.9072V126.14Z" fill="#228B22" stroke="#0F420F" stroke-width="1.11628" stroke-linejoin="round"/>
<path d="M87.5581 126.14L44.0581 151.256V101.024L87.5581 75.9072V126.14Z" fill="#145A14" stroke="#0F420F" stroke-width="1.11628" stroke-linejoin="round"/>
<path d="M87.5581 75.9072L131.058 101.024L87.5581 126.14L44.0581 101.024L87.5581 75.9072Z" fill="#3EB03E" stroke="#0F420F" stroke-width="1.11628" stroke-linejoin="round"/>
<path d="M44.0581 151.256L87.5581 176.372V126.14L44.0581 101.023V151.256Z" fill="#228B22" stroke="#0F420F" stroke-width="1.11628" stroke-linejoin="round"/>
<path d="M131.058 151.256L87.5583 176.372V126.14L131.058 101.023V151.256Z" fill="#145A14" stroke="#0F420F" stroke-width="1.11628" stroke-linejoin="round"/>
<path d="M131.058 101.023L174.558 126.14L131.058 151.256L87.5583 126.14L131.058 101.023Z" fill="#3EB03E" stroke="#0F420F" stroke-width="1.11628" stroke-linejoin="round"/>
<path d="M87.5583 176.372L131.058 201.489V151.256L87.5583 126.14V176.372Z" fill="#228B22" stroke="#0F420F" stroke-width="1.11628" stroke-linejoin="round"/>
<path d="M174.558 176.372L131.058 201.489V151.256L174.558 126.14V176.372Z" fill="#145A14" stroke="#0F420F" stroke-width="1.11628" stroke-linejoin="round"/>
<path d="M33.5332 348.604V316.738H22.1523V310.25H52.632V316.738H41.2774V348.604H33.5332ZM64.9285 310.25V324.352C67.3006 321.578 70.1349 320.192 73.4314 320.192C75.1233 320.192 76.6495 320.506 78.0099 321.134C79.3704 321.761 80.3908 322.564 81.071 323.541C81.7687 324.517 82.2396 325.599 82.4838 326.785C82.7454 327.971 82.8762 329.811 82.8762 332.305V348.604H75.5245V333.927C75.5245 331.014 75.3849 329.166 75.1059 328.381C74.8268 327.596 74.3297 326.977 73.6146 326.523C72.9169 326.052 72.0361 325.817 70.9721 325.817C69.7512 325.817 68.6611 326.113 67.7018 326.706C66.7425 327.299 66.0361 328.198 65.5826 329.401C65.1466 330.587 64.9285 332.349 64.9285 334.686V348.604H57.5768V310.25H64.9285ZM97.3966 348.604H90.0448V320.82H96.8733V324.77C98.0419 322.904 99.0884 321.674 100.013 321.081C100.955 320.488 102.019 320.192 103.205 320.192C104.879 320.192 106.493 320.654 108.045 321.578L105.769 327.988C104.53 327.186 103.379 326.785 102.315 326.785C101.286 326.785 100.414 327.073 99.6989 327.648C98.9838 328.206 98.4169 329.227 97.9983 330.709C97.5972 332.192 97.3966 335.296 97.3966 340.023V348.604ZM129.525 348.604V344.445C128.513 345.927 127.179 347.096 125.522 347.95C123.882 348.805 122.147 349.232 120.315 349.232C118.449 349.232 116.774 348.823 115.292 348.003C113.809 347.183 112.737 346.032 112.074 344.549C111.411 343.067 111.08 341.017 111.08 338.401V320.82H118.431V333.587C118.431 337.494 118.562 339.892 118.824 340.782C119.103 341.654 119.6 342.352 120.315 342.875C121.03 343.381 121.937 343.634 123.036 343.634C124.292 343.634 125.417 343.293 126.411 342.613C127.405 341.916 128.086 341.061 128.452 340.049C128.818 339.02 129.001 336.517 129.001 332.541V320.82H136.353V348.604H129.525ZM144.071 310.25H159.402C162.437 310.25 164.696 310.381 166.179 310.642C167.679 310.886 169.013 311.41 170.182 312.212C171.368 313.014 172.353 314.087 173.138 315.43C173.923 316.756 174.315 318.247 174.315 319.904C174.315 321.7 173.827 323.349 172.85 324.849C171.891 326.349 170.583 327.474 168.926 328.224C171.263 328.904 173.059 330.064 174.315 331.703C175.571 333.343 176.199 335.27 176.199 337.485C176.199 339.229 175.789 340.93 174.969 342.587C174.167 344.227 173.059 345.543 171.647 346.538C170.251 347.514 168.525 348.116 166.466 348.343C165.176 348.482 162.062 348.57 157.126 348.604H144.071V310.25ZM151.815 316.634V325.503H156.891C159.908 325.503 161.783 325.459 162.516 325.372C163.841 325.215 164.879 324.761 165.629 324.011C166.397 323.244 166.78 322.241 166.78 321.003C166.78 319.817 166.449 318.857 165.786 318.125C165.141 317.375 164.173 316.921 162.882 316.764C162.115 316.677 159.908 316.634 156.263 316.634H151.815ZM151.815 331.886V342.142H158.984C161.775 342.142 163.545 342.064 164.295 341.907C165.446 341.698 166.379 341.192 167.094 340.389C167.827 339.57 168.193 338.479 168.193 337.119C168.193 335.968 167.914 334.991 167.356 334.189C166.798 333.386 165.987 332.802 164.923 332.436C163.876 332.07 161.591 331.886 158.068 331.886H151.815ZM181.013 334.32C181.013 331.878 181.615 329.514 182.818 327.229C184.022 324.945 185.722 323.2 187.92 321.997C190.135 320.793 192.603 320.192 195.324 320.192C199.527 320.192 202.972 321.561 205.658 324.299C208.344 327.02 209.687 330.465 209.687 334.634C209.687 338.837 208.327 342.325 205.606 345.099C202.902 347.854 199.493 349.232 195.376 349.232C192.83 349.232 190.397 348.657 188.077 347.506C185.775 346.354 184.022 344.671 182.818 342.456C181.615 340.224 181.013 337.511 181.013 334.32ZM188.548 334.712C188.548 337.468 189.202 339.578 190.51 341.043C191.818 342.509 193.432 343.241 195.35 343.241C197.269 343.241 198.873 342.509 200.164 341.043C201.472 339.578 202.126 337.45 202.126 334.66C202.126 331.939 201.472 329.846 200.164 328.381C198.873 326.916 197.269 326.183 195.35 326.183C193.432 326.183 191.818 326.916 190.51 328.381C189.202 329.846 188.548 331.956 188.548 334.712ZM211.937 348.604L221.958 334.293L212.356 320.82H221.33L226.248 328.459L231.429 320.82H240.062L230.644 333.979L240.926 348.604H231.9L226.248 339.997L220.545 348.604H211.937Z" fill="#228B22"/>
</svg>
